<svg xmlns="http://www.w3.org/2000/svg" xmlns:xlink="http://www.w3.org/1999/xlink" version="1.1" x="0px" y="0px" viewBox="0 0 60 60" enable-background="new 0 0 60 60" xml:space="preserve"><path d="M52,5H8C6.3457031,5,5,6.3457031,5,8v44c0,1.6542969,1.3457031,3,3,3h44c1.6542969,0,3-1.3457031,3-3V8  C55,6.3457031,53.6542969,5,52,5z M8,7h44c0.5512695,0,1,0.4487305,1,1v7.9165039H7V8C7,7.4487305,7.4487305,7,8,7z M52,53H8  c-0.5512695,0-1-0.4487305-1-1V17.9165039h46V52C53,52.5512695,52.5512695,53,52,53z"  fill = "#E64A3A" /><path d="M11.125,12.4584961h15.25c0.5522461,0,1-0.4477539,1-1s-0.4477539-1-1-1h-15.25c-0.5522461,0-1,0.4477539-1,1  S10.5727539,12.4584961,11.125,12.4584961z"  fill = "#E64A3A" /><path d="M34.875,12.4584961h2c0.5522461,0,1-0.4477539,1-1s-0.4477539-1-1-1h-2c-0.5522461,0-1,0.4477539-1,1  S34.3227539,12.4584961,34.875,12.4584961z"  fill = "#E64A3A" /><path d="M40.875,12.4584961h2c0.5522461,0,1-0.4477539,1-1s-0.4477539-1-1-1h-2c-0.5522461,0-1,0.4477539-1,1  S40.3227539,12.4584961,40.875,12.4584961z" fill = "#E64A3A" /><path d="M46.875,12.4584961h2c0.5522461,0,1-0.4477539,1-1s-0.4477539-1-1-1h-2c-0.5522461,0-1,0.4477539-1,1  S46.3227539,12.4584961,46.875,12.4584961z"  fill = "#E64A3A" /><path d="M30,41.8876953c5.8242188,0,10.5625-4.7426758,10.5625-10.5722656c0-5.8188477-4.7382813-10.5527344-10.5625-10.5527344  S19.4375,25.496582,19.4375,31.3154297C19.4375,37.1450195,24.1757813,41.8876953,30,41.8876953z M30,22.7626953  c4.7211914,0,8.5625,3.8369141,8.5625,8.5527344c0,4.7265625-3.8413086,8.5722656-8.5625,8.5722656  s-8.5625-3.8457031-8.5625-8.5722656C21.4375,26.5996094,25.2788086,22.7626953,30,22.7626953z"  fill = "#E64A3A" /><path d="M27.5576172,38.3793945c0.1235352,0.0512695,0.253418,0.0761719,0.3823242,0.0761719  c0.2602539,0,0.5166016-0.1020508,0.7075195-0.293457l6.1201172-6.1303711c0.3901367-0.390625,0.3901367-1.0224609,0-1.4130859  l-6.1201172-6.1298828c-0.2861328-0.2871094-0.7172852-0.3730469-1.0898438-0.2172852  c-0.3740234,0.1542969-0.6176758,0.519043-0.6176758,0.9238281v12.2602539  C26.9399414,37.8603516,27.1835938,38.2250977,27.5576172,38.3793945z M28.9399414,27.6123047l3.7070313,3.7128906  l-3.7070313,3.7133789V27.6123047z" fill = "#E64A3A" /><path d="M47.9165039,45.6123047H18.25v-1.5419922c0-0.5522461-0.4477539-1-1-1s-1,0.4477539-1,1v1.5419922h-4.1665039  c-0.5522461,0-1,0.4477539-1,1s0.4477539,1,1,1H16.25v1.5415039c0,0.5522461,0.4477539,1,1,1s1-0.4477539,1-1v-1.5415039h29.6665039  c0.5522461,0,1-0.4477539,1-1S48.46875,45.6123047,47.9165039,45.6123047z" fill = "#E64A3A" /></svg>
