<svg xmlns="http://www.w3.org/2000/svg" data-name="Layer 106" viewBox="0 0 100 100" x="0px" y="0px"><title>5. Open Book</title><path d="M90,26.8H85.5V25a.49.49,0,0,0-.25-.43C85,24.42,59.76,10.28,50,24.13A13.55,13.55,0,0,0,47,21a14.51,14.51,0,0,0-6-2.63h0c-11.24-2.29-25.65,5.83-26.26,6.18a.49.49,0,0,0-.25.43v1.8H10a.5.5,0,0,0-.5.5V75a.65.65,0,0,0,0,.2h0L11,78.46a.51.51,0,0,0,.45.29H88.54a.51.51,0,0,0,.45-.29l1.47-3.25h0a.65.65,0,0,0,0-.2V27.3A.5.5,0,0,0,90,26.8Zm-78.21,51-1-2.25H89.23l-1,2.25ZM10.5,27.8h4V70s0,0,0,0a.51.51,0,0,0,.05.22l0,0a.47.47,0,0,0,.14.14s0,0,0,0h0l.06,0,4.06,1.23.14,0H80.12l5-1.23.09,0h.06a.65.65,0,0,0,.16-.17,0,0,0,0,1,0,0,.46.46,0,0,0,0-.2s0,0,0,0V27.8h4V74.5h-79Zm35.73-6.13v15l-2-3.28a.51.51,0,0,0-.86,0l-2,3.28V19.5A13.42,13.42,0,0,1,46.23,21.67ZM40.41,19.3V38.47a.5.5,0,0,0,.93.26l2.48-4.11,2.48,4.11a.51.51,0,0,0,.43.24l.13,0a.5.5,0,0,0,.37-.48v-16a13.13,13.13,0,0,1,2.27,2.67V68.43C40.4,57,19.69,67,15.5,69.16V25.3C17.46,24.23,30.39,17.5,40.41,19.3ZM50.5,25.15c8.5-13.14,31.34-1.3,34,.15V69.16C81.78,67.74,72.1,63,63.16,63c-4.84,0-9.47,1.37-12.66,5.39ZM50.61,70c8-11.94,28-2.73,33-.17l-3.67.9H19.13l-2.83-.86C21.13,67.39,41.37,58,49.39,70Z"/></svg>
