<svg xmlns="http://www.w3.org/2000/svg" data-name="Layer 106" viewBox="0 0 100 100" x="0px" y="0px"><title>16. Drawing Board</title><path d="M24.86,75.5h9.45l-1.68,5H30a.5.5,0,0,0-.5.5v4a.5.5,0,0,0,.5.5h1l-1.44,4.34a.48.48,0,0,0,.06.45.52.52,0,0,0,.41.21h5a.5.5,0,0,0,.47-.34L37,85.5H63l1.56,4.66a.5.5,0,0,0,.47.34h5a.52.52,0,0,0,.41-.21.48.48,0,0,0,.06-.45L69,85.5h1a.5.5,0,0,0,.5-.5V81a.5.5,0,0,0-.5-.5H67.37l-1.68-5h9.45a.5.5,0,0,0,.5-.5V70a.5.5,0,0,0-.5-.5H70.5v-44h4.64a.5.5,0,0,0,.5-.5V20a.5.5,0,0,0-.5-.5H55.5V15a5.5,5.5,0,0,0-11,0v4.5H24.86a.5.5,0,0,0-.5.5v5a.5.5,0,0,0,.5.5H29.5v44H24.86a.5.5,0,0,0-.5.5v5A.5.5,0,0,0,24.86,75.5Zm.5-5H74.64v4H25.36Zm5.14-45h39v44h-39Zm-5.14-5H74.64v4H25.36ZM45.5,15a4.5,4.5,0,0,1,9,0v4.5h-9Zm24,69.5h-.81l-1-3H69.5Zm-.19,5h-4l-4.67-14h4Zm-38.62,0,4.67-14h4l-4.67,14Zm-.19-8h1.79l-1,3H30.5Zm29.14-6,1.68,5H38.68l1.68-5Zm-21.29,6h23.3l1,3H37.36Z" fill = "#823E9D" /><path d="M50,12.82A2.18,2.18,0,1,0,52.18,15,2.19,2.19,0,0,0,50,12.82Zm0,3.36A1.18,1.18,0,1,1,51.18,15,1.18,1.18,0,0,1,50,16.18Z" fill = "#823E9D" /></svg>
